<?xml version="1.0" encoding="utf-8"?>
<!-- Generator: Adobe Illustrator 25.4.1, SVG Export Plug-In . SVG Version: 6.00 Build 0)  -->
<svg version="1.0" id="katman_1" xmlns="http://www.w3.org/2000/svg" xmlns:xlink="http://www.w3.org/1999/xlink" x="0px" y="0px"
	 viewBox="0 0 1700 1200" style="enable-background:new 0 0 1700 1200;" xml:space="preserve">
<style type="text/css">
	.st0{fill:#1ABCFE;}
	.st1{fill:#0ACF83;}
	.st2{fill:#FF7262;}
	.st3{fill:#F24E1E;}
	.st4{fill:#A259FF;}
	.st5{fill-rule:evenodd;clip-rule:evenodd;}
</style>
<path class="st0" d="M368.6,590.1c0-59.6,48.3-108,108-108c59.6,0,108,48.3,108,108s-48.3,108-108,108
	C416.9,698.1,368.6,649.8,368.6,590.1z"/>
<path class="st1" d="M152.7,806c0-59.6,48.3-108,108-108h108v108c0,59.6-48.3,108-108,108S152.7,865.7,152.7,806z"/>
<path class="st2" d="M368.6,266.3v215.9h108c59.6,0,108-48.3,108-108s-48.3-108-108-108H368.6z"/>
<path class="st3" d="M152.7,374.2c0,59.6,48.3,108,108,108h108V266.3h-108C201,266.3,152.7,314.6,152.7,374.2z"/>
<path class="st4" d="M152.7,590.1c0,59.6,48.3,108,108,108h108V482.2h-108C201,482.2,152.7,530.5,152.7,590.1z"/>
<path d="M756.8,483.5v229.1l29.5,0.1V603.6h71v-28.9h-71.1v-62.5h92.6v-28.8H756.8z M931.8,530.1c10.7,0,19.3-8.6,19.3-19.3
	s-8.6-19.3-19.3-19.3s-19.3,8.6-19.3,19.3S921.1,530.1,931.8,530.1L931.8,530.1z M916.9,558.9v153.9h29.5V558.9H916.9z"/>
<path class="st5" d="M1055.7,554.4c-39.1,0-66.4,33.1-66.4,72.4s27.3,72.4,66.4,72.4c18,0,32.7-6.8,43.5-18.2v20.5
	c0.3,25.5-20.1,46.5-45.7,46.8c-0.2,0-0.3,0-0.5,0c-9.4,0-18.8-3.6-26.1-8.9l-14.8,25.6c35.1,22.7,81.8,12.6,104.5-22.4
	c7.9-12.3,12.1-26.6,12.1-41.2V559h-29.5v13.8c-10.8-11.4-25.6-18.2-43.5-18.2V554.4z M1018.7,626.8c0-24.4,18.6-43.6,40.2-43.6
	c21.6,0,40.1,19.3,40.1,43.6c0,24.4-18.6,43.5-40.1,43.5C1037.4,670.3,1018.7,651.3,1018.7,626.8z"/>
<path d="M1234.9,583.2c-17.6,0.3-31.7,14.7-31.6,32.3v97.3h-29.5V558.9h29.5V573c9-11.9,23.1-18.8,38-18.5
	c20.7,0,36.6,10.2,45.7,25.9c10.3-16,27.9-25.7,46.9-25.9c33.5,0,54.5,27,54.5,60.6v97.7h-29.3v-97.4c0.1-17.6-14-32-31.6-32.3
	c-17.6,0.3-31.7,14.7-31.6,32.3v97.3h-29.5v-97.3c0.1-17.5-13.9-31.9-31.5-32.3L1234.9,583.2z"/>
<path class="st5" d="M1545.5,576.4c-13.6-14.1-32.3-22.1-51.9-21.9c-43.9,0-75,37-75,81.4s31.1,81.4,75,81.4
	c19.6,0.1,38.3-7.8,51.9-21.9v17.5h29.4V558.9h-29.5v17.5H1545.5z M1448,635.8c0-29.3,22.5-52.6,48.8-52.6
	c26.1,0,48.8,23.3,48.8,52.6s-22.5,52.5-48.8,52.5C1470.7,688.3,1448,665.1,1448,635.8z"/>
</svg>
