<?xml version="1.0" encoding="utf-8"?>
<!-- Generator: Adobe Illustrator 25.0.1, SVG Export Plug-In . SVG Version: 6.00 Build 0)  -->
<svg version="1.0" id="katman_1" xmlns="http://www.w3.org/2000/svg" xmlns:xlink="http://www.w3.org/1999/xlink" x="0px" y="0px"
	 viewBox="0 0 928 618" style="enable-background:new 0 0 928 618;" xml:space="preserve">
<style type="text/css">
	.st0{opacity:0.7;enable-background:new    ;}
	.st1{fill:#FFFFFF;}
	.st2{clip-path:url(#SVGID_2_);}
	.st3{fill:#FFA000;}
	.st4{opacity:0.12;fill:url(#SVGID_3_);enable-background:new    ;}
	.st5{fill:#F57C00;}
	.st6{opacity:0.2;fill:url(#SVGID_4_);enable-background:new    ;}
	.st7{fill:#FFCA28;}
	.st8{fill:#FFFFFF;fill-opacity:0.2;}
	.st9{opacity:0.2;fill:#A52714;enable-background:new    ;}
	.st10{fill:url(#SVGID_5_);}
	.st11{display:none;}
	.st12{display:inline;fill:#00FFFF;fill-opacity:0.2;}
</style>
<g id="Layer_3">
	<path class="st0" d="M828,477H100c-6.6,0-12-5.4-12-12V153c0-6.6,5.4-12,12-12h728c6.6,0,12,5.4,12,12v312
		C840,471.6,834.6,477,828,477z"/>
</g>
<g id="Layer_1">
	<g>
		<g>
			<path class="st1" d="M345.3,377h-11.8v-91.6H387v11.3h-41.7v30.1H383v11h-37.6V377H345.3z"/>
			<path class="st1" d="M407.3,298.6c-1.6,1.6-3.6,2.4-5.9,2.4s-4.3-0.8-5.9-2.4s-2.4-3.6-2.4-5.9s0.8-4.3,2.4-5.9s3.6-2.4,5.9-2.4
				s4.3,0.8,5.9,2.4s2.4,3.6,2.4,5.9S408.9,296.9,407.3,298.6z M407.3,377h-11.8v-62.7h11.8V377z"/>
			<path class="st1" d="M431.9,377h-11.8v-62.7h11.3v10.2h0.5c1.2-3.4,3.6-6.2,7.4-8.4c3.7-2.2,7.3-3.3,10.8-3.3s6.4,0.5,8.8,1.5
				l-4.5,11c-1.5-0.6-3.6-0.9-6.3-0.9c-4.3,0-8,1.7-11.3,5.1c-3.3,3.4-4.9,7.8-4.9,13.2V377z"/>
			<path class="st1" d="M487.3,379.1c-9.5,0-17.2-3.2-23.1-9.5s-8.9-14.3-8.9-23.9c0-9.1,2.9-17,8.6-23.6c5.8-6.6,13.1-9.9,22.1-9.9
				c9.3,0,16.7,3,22.3,9.1c5.6,6.1,8.4,14.2,8.4,24.3l-0.1,2.2h-49.5c0.3,6.3,2.5,11.3,6.3,15c3.9,3.7,8.4,5.5,13.6,5.5
				c8.4,0,14.2-3.6,17.2-10.8l10.5,4.4c-2,4.9-5.4,8.9-10.1,12.2S494.1,379.1,487.3,379.1z M504.2,338.1c-0.3-3.6-1.9-7-4.9-10.2
				c-3-3.2-7.5-4.9-13.5-4.9c-4.4,0-8.1,1.4-11.3,4.1c-3.2,2.7-5.4,6.4-6.6,11L504.2,338.1L504.2,338.1z"/>
			<path class="st1" d="M558.1,379.1c-4.8,0-9.1-1-12.9-3.1c-3.8-2-6.6-4.6-8.5-7.7h-0.5v8.7h-11.3v-91.6h11.8v28.9l-0.5,8.7h0.5
				c1.9-3.1,4.7-5.6,8.5-7.7c3.8-2,8.1-3.1,12.9-3.1c8.1,0,15.1,3.2,21,9.6c5.9,6.4,8.8,14.3,8.8,23.8s-2.9,17.4-8.8,23.8
				C573.2,375.9,566.2,379.1,558.1,379.1z M556.1,368.3c5.5,0,10.2-2.1,14.1-6.2s5.9-9.6,5.9-16.4s-2-12.3-5.9-16.4
				s-8.6-6.2-14.1-6.2s-10.3,2-14.1,6.1c-3.8,4.1-5.8,9.6-5.8,16.5c0,6.9,1.9,12.4,5.8,16.5S550.6,368.3,556.1,368.3z"/>
			<path class="st1" d="M617.2,379.1c-6.7,0-12.2-1.9-16.7-5.8c-4.5-3.8-6.7-8.9-6.7-15.2c0-6.8,2.6-12.2,7.9-16.1
				c5.3-3.9,11.8-5.8,19.6-5.8c6.9,0,12.6,1.3,17,3.8v-1.8c0-4.6-1.6-8.3-4.7-11.1c-3.2-2.8-7-4.2-11.6-4.2c-3.4,0-6.5,0.8-9.3,2.4
				c-2.8,1.6-4.7,3.8-5.7,6.7l-10.8-4.6c1.5-3.8,4.3-7.2,8.6-10.4c4.3-3.2,9.9-4.8,16.9-4.8c8,0,14.7,2.3,20,7s7.9,11.3,7.9,19.8v38
				h-11.3v-8.7h-0.5C633.1,375.5,626.2,379.1,617.2,379.1z M619.1,368.3c4.9,0,9.3-1.8,13.2-5.4c4-3.6,6-7.9,6-12.9
				c-3.3-2.7-8.3-4.1-15-4.1c-5.7,0-10,1.2-12.9,3.7s-4.4,5.4-4.4,8.7c0,3.1,1.3,5.5,4,7.3C612.7,367.4,615.7,368.3,619.1,368.3z"/>
			<path class="st1" d="M682.3,379.1c-7,0-12.8-1.7-17.3-5.1c-4.6-3.4-7.9-7.7-10-12.8l10.5-4.4c3.3,7.9,9,11.8,17,11.8
				c3.7,0,6.7-0.8,9-2.4c2.3-1.6,3.5-3.8,3.5-6.4c0-4.1-2.9-6.9-8.6-8.3l-12.7-3.1c-4-1-7.8-3-11.4-5.8c-3.6-2.9-5.4-6.7-5.4-11.6
				c0-5.5,2.5-10,7.4-13.5s10.7-5.2,17.5-5.2c5.5,0,10.5,1.3,14.8,3.8c4.4,2.5,7.5,6.1,9.3,10.8l-10.2,4.2
				c-2.3-5.5-7.1-8.3-14.3-8.3c-3.5,0-6.4,0.7-8.8,2.2c-2.4,1.5-3.6,3.4-3.6,5.9c0,3.6,2.8,6,8.3,7.3l12.4,2.9
				c5.9,1.4,10.2,3.7,13.1,7c2.8,3.3,4.2,7.1,4.2,11.3c0,5.6-2.3,10.3-6.9,14.1S689.6,379.1,682.3,379.1z"/>
			<path class="st1" d="M743.8,379.1c-9.5,0-17.2-3.2-23.1-9.5c-5.9-6.3-8.9-14.3-8.9-23.9c0-9.1,2.9-17,8.6-23.6
				c5.8-6.6,13.1-9.9,22.1-9.9c9.3,0,16.7,3,22.3,9.1s8.4,14.2,8.4,24.3l-0.1,2.2h-49.5c0.3,6.3,2.5,11.3,6.3,15
				c3.9,3.7,8.4,5.5,13.6,5.5c8.4,0,14.2-3.6,17.2-10.8l10.5,4.4c-2,4.9-5.4,8.9-10.1,12.2C756.4,377.4,750.6,379.1,743.8,379.1z
				 M760.7,338.1c-0.3-3.6-1.9-7-4.9-10.2c-3-3.2-7.5-4.9-13.5-4.9c-4.4,0-8.1,1.4-11.3,4.1c-3.2,2.7-5.4,6.4-6.6,11L760.7,338.1
				L760.7,338.1z"/>
		</g>
		<g>
			<g>
				<defs>
					<path id="SVGID_1_" d="M264.8,278.4c-0.4-2.2-2.4-3.6-4.6-3.3c-0.8,0.1-1.6,0.5-2.2,1.1L237.2,297l-16.3-31.1
						c-1-2-3.4-2.7-5.4-1.7c-0.7,0.4-1.3,1-1.7,1.7l-8.9,17l-22.4-41.8c-1-1.9-3.5-2.7-5.4-1.6c-1.1,0.6-1.9,1.7-2.1,2.9L153.3,381
						l57.9,32.5c3.6,2,8.1,2,11.7,0l58.4-32.5L264.8,278.4z"/>
				</defs>
				<clipPath id="SVGID_2_">
					<use xlink:href="#SVGID_1_"  style="overflow:visible;"/>
				</clipPath>
				<g class="st2">
					<path class="st3" d="M153.3,381L175,242.4c0.3-2.2,2.4-3.7,4.6-3.3c1.2,0.2,2.3,1,2.9,2.1l22.4,41.8l8.9-17
						c1-2,3.4-2.7,5.4-1.7c0.7,0.4,1.3,1,1.7,1.7l60.4,115H153.3z"/>
					
						<linearGradient id="SVGID_3_" gradientUnits="userSpaceOnUse" x1="178.2401" y1="603.5651" x2="170.2401" y2="599.3851" gradientTransform="matrix(1 0 0 1 0 -270.0064)">
						<stop  offset="0" style="stop-color:#A52714"/>
						<stop  offset="0.4" style="stop-color:#A52714;stop-opacity:0.5"/>
						<stop  offset="0.8" style="stop-color:#A52714;stop-opacity:0"/>
					</linearGradient>
					<path class="st4" d="M227.3,240l-106-9v192l32-42L227.3,240z"/>
					<path class="st5" d="M228.2,327l-23.3-44.1L153.3,381L228.2,327z"/>
					
						<linearGradient id="SVGID_4_" gradientUnits="userSpaceOnUse" x1="212.2289" y1="591.9354" x2="208.6489" y2="588.3553" gradientTransform="matrix(1 0 0 1 0 -270.0064)">
						<stop  offset="0" style="stop-color:#A52714;stop-opacity:0.8"/>
						<stop  offset="0.5" style="stop-color:#A52714;stop-opacity:0.21"/>
						<stop  offset="1" style="stop-color:#A52714;stop-opacity:0"/>
					</linearGradient>
					<path class="st6" d="M121.3,231h192v192h-192C121.3,423,121.3,231,121.3,231z"/>
					<path class="st7" d="M281.3,381l-16.6-102.7c-0.4-2.2-2.4-3.6-4.6-3.3c-0.8,0.1-1.6,0.5-2.2,1.1L153.3,381l57.9,32.5
						c3.6,2,8.1,2,11.7,0L281.3,381z"/>
					<path class="st8" d="M264.8,278.4c-0.4-2.2-2.4-3.6-4.6-3.3c-0.8,0.1-1.6,0.5-2.2,1.1L237.2,297l-16.3-31.1
						c-1-2-3.4-2.7-5.4-1.7c-0.7,0.4-1.3,1-1.7,1.7l-8.9,17l-22.4-41.8c-1-1.9-3.5-2.7-5.4-1.6c-1.1,0.6-1.9,1.7-2.1,2.9L153.3,381
						h-0.1l0.1,0.1l0.6,0.3l83.3-83.4l20.8-20.8c1.6-1.6,4.1-1.6,5.7,0c0.6,0.6,1,1.3,1.1,2.2l16.4,101.7l0.2-0.1L264.8,278.4z
						 M153.5,380.8L175,243.4c0.3-2.2,2.4-3.7,4.6-3.3c1.2,0.2,2.3,1,2.9,2.1l22.4,41.8l8.9-17c1-2,3.4-2.7,5.4-1.7
						c0.7,0.4,1.3,1,1.7,1.7l16,30.4L153.5,380.8z"/>
					<path class="st9" d="M222.9,412.5c-3.6,2-8.1,2-11.7,0l-57.8-32.4l-0.1,0.9l57.9,32.5c3.6,2,8.1,2,11.7,0l58.4-32.5l-0.1-0.9
						L222.9,412.5z"/>
					
						<linearGradient id="SVGID_5_" gradientUnits="userSpaceOnUse" x1="-1006.3008" y1="-817.5366" x2="-956.2309" y2="-867.6067" gradientTransform="matrix(2.67 0 0 -2.67 2836.6719 -1912.8446)">
						<stop  offset="0" style="stop-color:#FFFFFF;stop-opacity:0.1"/>
						<stop  offset="1" style="stop-color:#FFFFFF;stop-opacity:0"/>
					</linearGradient>
					<path class="st10" d="M264.8,278.4c-0.4-2.2-2.4-3.6-4.6-3.3c-0.8,0.1-1.6,0.5-2.2,1.1L237.2,297l-16.3-31.1
						c-1-2-3.4-2.7-5.4-1.7c-0.7,0.4-1.3,1-1.7,1.7l-8.9,17l-22.4-41.8c-1-1.9-3.5-2.7-5.4-1.6c-1.1,0.6-1.9,1.7-2.1,2.9L153.3,381
						l57.9,32.5c3.6,2,8.1,2,11.7,0l58.4-32.5L264.8,278.4z"/>
				</g>
			</g>
		</g>
	</g>
	<g>
		<path class="st1" d="M332.7,250.2v-43h15.5c3.4,0,6.3,1.1,8.7,3.3c2.5,2.2,3.7,5,3.7,8.4c0,2-0.5,3.8-1.6,5.4s-2.5,2.7-4.2,3.5
			v0.2c2.1,0.7,3.9,2,5.2,3.7c1.4,1.8,2,3.8,2,6.1c0,3.5-1.3,6.4-3.9,8.8c-2.6,2.3-5.6,3.5-9.1,3.5L332.7,250.2L332.7,250.2z
			 M338.2,225.7h10c2.1,0,3.8-0.7,5-2.1c1.3-1.4,1.9-2.9,1.9-4.5c0-1.6-0.6-3.1-1.8-4.5c-1.2-1.4-2.8-2-4.8-2h-10.3V225.7
			L338.2,225.7z M338.2,245h11.1c2.1,0,3.8-0.7,5.2-2.2c1.3-1.5,2-3.1,2-4.9c0-1.8-0.7-3.4-2-4.8c-1.4-1.5-3.1-2.2-5.3-2.2h-10.9
			V245H338.2z"/>
		<path class="st1" d="M394.5,250.2h-5.3v-4.1H389c-0.8,1.4-2.1,2.6-3.8,3.6c-1.7,1-3.5,1.5-5.5,1.5c-3.7,0-6.5-1.1-8.4-3.4
			c-1.9-2.2-2.9-5.2-2.9-9v-18h5.5v17.1c0,5.5,2.4,8.2,7.3,8.2c2.3,0,4.1-0.9,5.6-2.8c1.4-1.8,2.2-4,2.2-6.4v-16.1h5.5L394.5,250.2
			L394.5,250.2z"/>
		<path class="st1" d="M407.9,213.5c-0.8,0.8-1.7,1.1-2.8,1.1s-2-0.4-2.8-1.1c-0.8-0.8-1.1-1.7-1.1-2.8s0.4-2,1.1-2.8
			c0.8-0.8,1.7-1.1,2.8-1.1s2,0.4,2.8,1.1c0.8,0.8,1.1,1.7,1.1,2.8S408.6,212.7,407.9,213.5z M407.9,250.2h-5.5v-29.4h5.5V250.2z"/>
		<path class="st1" d="M421.2,250.2h-5.5v-43h5.5V250.2z"/>
		<path class="st1" d="M440.9,250.7c-3.1,0-5.4-0.8-7-2.5c-1.6-1.6-2.4-4-2.4-7v-15.3h-5.2v-5h5.2v-9h5.5v9h7.2v5H437v15
			c0,3.2,1.3,4.8,4,4.8c1,0,1.8-0.2,2.5-0.5l1.9,4.7C444.1,250.5,442.6,250.7,440.9,250.7z"/>
		<path class="st1" d="M498.3,250.2h-5.6l-7.3-22.6l-7.3,22.6h-5.6l-9.5-29.4h5.8l6.5,22.2h0.1l7.3-22.2h5.7l7.3,22.2h0.1l6.5-22.2
			h5.6L498.3,250.2z"/>
		<path class="st1" d="M518.1,213.5c-0.8,0.8-1.7,1.1-2.8,1.1s-2-0.4-2.8-1.1c-0.8-0.8-1.1-1.7-1.1-2.8s0.4-2,1.1-2.8
			c0.8-0.8,1.7-1.1,2.8-1.1s2,0.4,2.8,1.1c0.8,0.8,1.1,1.7,1.1,2.8S518.8,212.7,518.1,213.5z M518.1,250.2h-5.5v-29.4h5.5V250.2z"/>
		<path class="st1" d="M538,250.7c-3.1,0-5.4-0.8-7.1-2.5c-1.6-1.6-2.4-4-2.4-7v-15.3h-5.2v-5h5.2v-9h5.5v9h7.2v5H534v15
			c0,3.2,1.3,4.8,4,4.8c1,0,1.8-0.2,2.5-0.5l1.9,4.7C541.2,250.5,539.8,250.7,538,250.7z"/>
		<path class="st1" d="M552.7,207.3v13.6l-0.2,4.1h0.2c0.8-1.4,2.1-2.6,3.8-3.6c1.7-1,3.6-1.5,5.5-1.5c3.6,0,6.4,1.1,8.3,3.4
			c1.9,2.2,2.9,5.2,2.9,9v18h-5.5v-17.2c0-5.4-2.4-8.2-7.3-8.2c-2.3,0-4.1,0.9-5.6,2.7c-1.4,1.8-2.2,3.9-2.2,6.3v16.3h-5.5v-43h5.6
			V207.3z"/>
	</g>
</g>
<g id="guides" class="st11">
	<rect id="XMLID_76_" x="87.4" y="413" class="st12" width="753.2" height="64"/>
	<rect id="XMLID_66_" x="87.4" y="141" class="st12" width="753.2" height="64"/>
	<rect x="776.5" y="141" class="st12" width="64" height="336"/>
	<rect x="284.3" y="141" class="st12" width="48" height="336"/>
	<rect x="87.5" y="141" class="st12" width="64" height="336"/>
</g>
</svg>
